<?xml version="1.0" standalone="no"?>
<!DOCTYPE svg PUBLIC "-//W3C//DTD SVG 20010904//EN"
 "http://www.w3.org/TR/2001/REC-SVG-20010904/DTD/svg10.dtd">
<svg version="1.0" xmlns="http://www.w3.org/2000/svg"
 width="1000.000000pt" height="1000.000000pt" viewBox="0 0 1000.000000 1000.000000"
 preserveAspectRatio="xMidYMid meet">

<g transform="translate(0.000000,1000.000000) scale(0.100000,-0.100000)"
fill="#000000" stroke="none">
<path d="M5382 8579 c-15 -23 -16 -56 -2 -64 6 -3 10 -14 10 -24 0 -10 11 -28
25 -41 20 -19 27 -21 40 -10 13 11 19 10 35 -5 11 -10 20 -15 20 -11 0 3 13 0
30 -9 16 -8 43 -15 61 -15 20 0 45 -11 69 -30 l38 -30 16 25 c9 13 16 33 16
43 0 23 -43 64 -92 86 -20 9 -40 21 -43 26 -4 6 -11 8 -16 4 -6 -3 -13 3 -16
15 -4 17 -13 21 -46 21 -22 0 -48 6 -56 14 -9 7 -30 16 -47 19 -23 4 -33 1
-42 -14z"/>
<path d="M5084 8576 c-7 -7 -14 -22 -16 -32 -2 -12 -12 -19 -25 -18 -20 0 -21
-3 -15 -100 4 -89 8 -104 29 -123 13 -12 28 -34 33 -48 11 -29 12 -491 1 -590
l-6 -60 -90 -6 c-49 -3 -106 -9 -126 -14 l-36 -7 -7 91 c-4 50 -12 91 -17 91
-5 0 -9 25 -9 54 0 44 -6 64 -29 98 -20 30 -31 61 -35 103 -15 146 -19 165
-33 177 -12 10 -17 9 -28 -5 -7 -9 -17 -17 -24 -17 -10 0 -12 -6 -15 -50 -1
-8 -5 -21 -9 -28 -5 -7 -4 -18 1 -25 5 -7 12 -52 15 -102 3 -51 10 -91 16 -93
7 -2 11 -42 11 -111 0 -96 2 -110 20 -126 13 -12 20 -29 18 -44 -3 -24 -7 -26
-71 -31 -37 -3 -71 -10 -75 -17 -10 -16 -56 -26 -83 -18 -17 6 -19 9 -8 16 8
5 24 9 36 9 21 0 40 16 30 26 -6 7 -210 -17 -217 -25 -8 -10 -97 -31 -129 -31
-21 0 -38 12 -69 49 -23 27 -42 58 -42 69 0 11 -9 31 -20 45 -21 26 -27 77
-10 77 6 0 10 5 10 10 0 6 -8 10 -18 10 -22 0 -94 58 -87 70 3 5 1 11 -5 15
-5 3 -10 11 -10 18 0 8 3 8 12 -1 17 -17 28 -15 28 7 0 13 -8 21 -22 23 -20 3
-46 40 -62 91 -3 9 -14 17 -25 17 -11 0 -21 6 -24 13 -6 16 -38 -2 -52 -30 -6
-11 -17 -27 -27 -36 -13 -14 -14 -22 -4 -51 7 -20 15 -39 19 -42 4 -4 7 -18 7
-31 0 -18 6 -23 24 -23 30 0 42 -15 51 -62 11 -56 80 -167 138 -219 50 -46 56
-69 16 -69 -10 0 -19 -4 -19 -10 0 -5 -18 -10 -40 -10 -22 0 -40 -4 -40 -8 0
-4 -24 -16 -52 -26 -29 -11 -57 -23 -62 -27 -29 -26 -86 17 -86 64 0 24 -3 26
-31 20 -24 -5 -36 0 -60 23 -31 30 -38 47 -15 38 18 -7 31 15 18 28 -8 8 -15
8 -26 -1 -11 -9 -20 -4 -48 29 -36 42 -72 52 -97 28 -10 -11 -15 -10 -25 5
-19 25 -36 21 -36 -9 0 -17 6 -28 20 -31 11 -3 20 -12 20 -19 0 -18 -8 -17
-45 7 -48 30 -56 32 -68 20 -9 -10 -5 -18 18 -37 17 -13 38 -24 47 -24 10 0
34 -22 55 -50 26 -35 44 -50 61 -50 24 0 121 -93 122 -117 0 -6 -28 -26 -62
-43 -35 -18 -73 -41 -85 -52 -18 -16 -29 -19 -59 -13 -34 6 -36 5 -24 -10 11
-13 11 -18 -1 -31 -13 -13 -24 -12 -93 2 -43 9 -81 13 -84 9 -12 -12 42 -43
85 -50 46 -7 52 -18 28 -45 -8 -9 -21 -40 -27 -68 -7 -29 -16 -52 -20 -52 -5
0 -8 -16 -8 -35 0 -19 -3 -35 -7 -35 -9 0 -193 188 -193 198 0 16 -112 117
-117 105 -11 -29 -63 -6 -63 27 0 16 -39 60 -53 60 -3 0 -18 -12 -32 -26 l-27
-26 31 -32 c36 -37 38 -46 11 -46 -11 0 -20 -2 -20 -4 0 -3 52 -55 116 -118
103 -100 174 -185 174 -207 0 -11 65 -72 92 -85 l23 -12 7 -339 c9 -466 22
-746 36 -772 7 -12 12 -38 12 -57 0 -20 4 -36 8 -36 9 0 42 -260 42 -330 l0
-44 -60 59 c-33 33 -60 67 -60 76 0 18 -464 479 -482 479 -6 0 -30 18 -54 40
-24 22 -49 40 -55 40 -6 0 -25 10 -42 23 -33 23 -53 35 -128 73 -26 13 -52 31
-59 39 -7 8 -18 15 -25 15 -7 0 -23 9 -37 19 -29 24 -205 112 -280 142 -29 11
-55 24 -58 29 -11 17 -163 40 -266 40 -102 0 -110 -2 -153 -29 -25 -17 -62
-46 -80 -65 -19 -20 -40 -36 -46 -36 -21 0 -42 -34 -65 -102 -13 -38 -26 -68
-31 -68 -7 0 -26 -65 -36 -127 -3 -18 -9 -33 -14 -33 -5 0 -9 -18 -9 -41 0
-40 -1 -41 -28 -34 -15 3 -34 13 -43 21 -8 8 -32 14 -52 14 -19 0 -42 7 -51
15 -8 8 -25 15 -37 15 -12 0 -41 18 -65 40 -24 22 -54 40 -66 40 -23 0 -105
39 -183 85 -41 25 -85 33 -85 16 0 -6 12 -16 27 -23 23 -11 27 -19 25 -45 -3
-26 0 -32 19 -35 15 -2 25 -12 29 -28 5 -20 12 -25 37 -26 22 0 45 -13 82 -46
27 -25 64 -48 80 -51 17 -4 47 -17 68 -30 21 -13 54 -29 73 -37 19 -7 42 -19
51 -27 8 -7 19 -13 23 -13 5 0 30 -14 57 -32 47 -30 49 -33 49 -79 0 -38 -4
-51 -20 -59 -18 -10 -20 -21 -20 -145 0 -74 -4 -135 -8 -135 -5 0 -14 -51 -21
-112 -17 -151 -48 -278 -74 -306 -23 -25 -47 -85 -47 -119 0 -13 -5 -23 -11
-23 -15 0 -8 -388 7 -398 6 -4 14 -25 18 -47 6 -31 24 -56 87 -120 49 -51 79
-90 79 -103 0 -27 87 -93 184 -140 62 -29 77 -32 140 -30 65 3 69 4 44 15 -29
13 -37 31 -15 38 6 2 74 6 150 10 120 5 137 4 137 -9 0 -10 9 -16 25 -16 14 0
25 5 25 12 0 6 8 20 17 30 14 16 15 23 5 39 -10 16 -10 20 3 25 8 4 15 12 15
20 0 11 -25 14 -125 14 -79 0 -125 4 -125 10 0 6 8 13 18 17 21 7 62 43 62 55
0 4 -25 8 -55 8 -61 0 -129 14 -190 39 -21 9 -42 16 -45 16 -4 0 -42 31 -85
70 l-78 70 7 140 c4 77 9 156 12 176 5 31 3 37 -16 42 -18 5 -21 11 -16 29 3
13 6 33 6 46 0 13 6 22 15 22 13 0 15 23 15 146 0 134 2 147 20 162 13 11 24
39 30 77 6 33 17 90 25 126 8 37 15 81 15 98 0 17 5 31 10 31 6 0 10 31 10 73
0 72 0 73 27 75 47 4 133 -17 160 -38 14 -11 38 -20 54 -20 15 0 31 -4 34 -10
3 -5 22 -10 41 -10 19 0 34 -4 34 -9 0 -8 52 -31 71 -31 5 0 9 7 9 15 0 20 19
19 41 -1 10 -9 23 -13 28 -9 16 9 13 61 -4 75 -9 8 -13 21 -9 32 4 14 -3 22
-32 34 -21 9 -54 18 -73 21 -20 4 -38 9 -41 13 -24 30 -56 39 -129 33 -63 -5
-79 -3 -90 11 -7 9 -18 16 -23 16 -42 0 -50 90 -15 178 13 31 29 77 37 102 7
25 20 52 27 61 7 8 13 22 13 31 0 34 34 49 96 42 33 -4 70 -15 83 -26 13 -10
31 -18 40 -18 10 0 26 -7 37 -15 10 -8 29 -15 42 -15 12 0 22 -4 22 -10 0 -5
7 -10 15 -10 8 0 23 -4 33 -9 36 -20 117 -58 122 -57 3 1 26 -16 51 -36 48
-39 75 -49 65 -23 -10 26 19 17 61 -20 23 -19 50 -35 61 -35 12 0 24 -4 27
-10 3 -5 14 -10 24 -10 10 0 26 -9 37 -21 10 -12 32 -28 49 -36 16 -8 46 -31
67 -50 35 -34 59 -51 103 -72 23 -11 153 -141 141 -141 -4 0 6 -16 23 -35 17
-20 31 -40 31 -46 0 -6 108 -119 240 -253 l240 -243 0 -75 c0 -62 -3 -78 -20
-93 -19 -18 -21 -17 -55 1 -31 16 -41 31 -58 86 -3 9 -16 18 -29 20 -13 2 -24
11 -26 23 -2 11 -10 27 -18 36 -8 9 -12 18 -9 20 9 10 -75 83 -107 93 -20 7
-38 22 -46 39 -7 15 -19 27 -26 27 -7 0 -25 9 -39 20 -39 31 -54 26 -62 -21
-7 -41 -7 -42 71 -120 72 -72 79 -82 79 -119 0 -37 2 -40 26 -40 32 0 53 -22
45 -48 -4 -13 -1 -22 9 -26 8 -3 20 -17 25 -32 10 -24 14 -26 50 -21 30 4 40
2 40 -9 0 -8 5 -14 10 -14 17 0 24 31 12 51 -15 24 -15 29 1 29 8 0 24 -12 38
-26 l24 -26 -30 -25 c-16 -14 -49 -38 -73 -53 -131 -86 -309 -257 -348 -334
-32 -64 -66 -162 -99 -291 -40 -154 -45 -183 -37 -223 l8 -37 169 -3 c171 -3
274 8 299 33 7 7 28 16 47 20 19 4 69 20 112 36 65 24 94 29 168 29 l89 0 0
-52 c0 -77 11 -128 26 -128 10 0 14 24 16 98 l3 97 125 3 c121 2 127 2 148
-21 20 -21 21 -27 10 -57 -9 -26 -9 -35 0 -38 15 -5 16 -32 2 -32 -16 0 -12
-126 4 -139 8 -7 13 -29 12 -58 -1 -53 -2 -54 -132 -68 l-64 -7 0 41 c0 22 5
43 10 46 6 3 10 20 10 37 0 21 -6 31 -20 35 -23 6 -26 23 -8 41 10 10 10 15
-2 22 -26 17 -61 12 -67 -10 -3 -13 -13 -19 -27 -17 -18 2 -21 -4 -24 -45 -2
-27 -7 -48 -13 -48 -5 0 -9 -17 -9 -37 -1 -21 -4 -56 -9 -79 -6 -29 -4 -46 6
-59 7 -11 13 -32 13 -47 0 -16 7 -31 15 -34 8 -4 15 -15 15 -25 0 -38 33 -97
98 -177 24 -29 45 -59 46 -67 1 -8 11 -25 22 -37 24 -29 55 -75 73 -110 8 -16
19 -28 26 -28 20 0 123 -115 134 -150 6 -21 37 -61 71 -95 33 -33 60 -67 60
-75 0 -9 11 -27 25 -40 14 -13 25 -26 25 -30 0 -13 -149 -50 -202 -50 -51 0
-57 2 -60 22 -3 23 -112 118 -135 118 -7 0 -13 -11 -13 -25 0 -18 -5 -25 -19
-25 -29 0 -52 28 -46 53 8 32 -45 83 -71 69 -11 -6 -26 -13 -35 -15 -12 -4
-15 -13 -12 -31 6 -28 -13 -37 -23 -11 -4 8 -12 15 -20 15 -28 0 -13 -44 31
-91 59 -63 59 -79 0 -79 -25 0 -45 -3 -45 -7 0 -5 56 -61 124 -126 91 -85 134
-119 158 -124 18 -3 36 -11 40 -17 10 -16 385 -21 403 -6 8 6 15 24 17 38 2
21 9 28 31 30 15 2 27 7 27 12 0 5 15 11 33 15 17 4 48 19 67 34 32 24 44 27
125 29 51 1 91 6 93 12 2 5 21 10 43 10 21 0 39 5 39 10 0 6 18 10 40 10 22 0
40 5 40 10 0 6 18 10 40 10 22 0 40 5 40 10 0 6 18 10 40 10 22 0 40 4 40 9 0
5 18 11 40 15 22 3 40 11 40 16 0 6 18 10 40 10 22 0 40 4 40 9 0 5 18 12 40
16 22 4 40 10 40 15 0 4 15 10 33 13 60 10 127 30 127 39 0 4 13 8 29 8 16 0
36 7 45 15 8 8 26 15 40 15 29 0 118 22 126 30 3 4 21 12 40 20 19 8 37 17 40
20 3 4 39 11 80 16 68 8 75 11 76 32 1 12 3 24 5 25 2 1 22 11 43 22 22 11 45
25 51 32 7 6 28 15 48 18 33 6 35 5 30 -14 -3 -12 -1 -21 6 -21 14 0 15 -126
1 -135 -6 -3 -10 -14 -10 -24 0 -10 -9 -26 -19 -35 -16 -15 -18 -27 -14 -70 4
-40 2 -55 -11 -65 -9 -7 -16 -21 -16 -30 0 -9 -5 -22 -12 -29 -17 -17 6 -62
32 -62 17 0 19 -4 14 -27 -6 -22 -4 -25 10 -20 10 4 20 7 22 7 2 0 4 11 4 25
0 17 6 25 16 25 14 0 16 -8 11 -55 -6 -59 -5 -60 23 -45 16 9 18 18 13 59 -5
40 -2 55 16 79 22 32 28 62 11 62 -14 0 -12 23 5 56 8 16 15 48 15 72 0 23 4
42 9 42 14 0 23 51 11 65 -8 9 -8 37 0 96 5 46 10 87 10 92 0 5 -12 6 -27 2
l-28 -7 22 24 c24 26 105 53 188 63 74 9 183 46 215 71 8 7 44 27 80 46 36 19
88 49 116 66 28 18 56 32 61 32 20 0 156 135 169 167 8 18 14 45 14 61 0 36
-37 138 -84 230 -34 68 -90 132 -103 118 -6 -6 4 -66 23 -136 l7 -25 -25 23
c-27 24 -58 21 -58 -5 0 -9 14 -31 30 -50 29 -33 39 -63 21 -63 -6 0 -13 5
-16 10 -12 19 -25 10 -25 -18 0 -29 29 -63 63 -75 20 -7 23 -37 5 -55 -7 -7
-40 -12 -78 -12 -78 0 -107 -20 -96 -65 6 -24 5 -25 -45 -25 -28 0 -88 -9
-135 -21 -46 -11 -88 -18 -94 -14 -5 3 -25 -5 -42 -18 -18 -13 -53 -31 -78
-41 -25 -10 -63 -26 -85 -37 -22 -10 -48 -19 -57 -19 -10 0 -18 -4 -18 -10 0
-5 -18 -10 -40 -10 -22 0 -40 -4 -40 -8 0 -4 -24 -16 -52 -26 -59 -20 -87 -32
-169 -70 -57 -27 -103 -33 -114 -17 -3 5 -1 12 5 16 12 8 13 92 1 99 -4 3 -11
33 -15 66 -4 33 -13 72 -21 87 -8 16 -15 44 -15 64 0 33 3 37 39 47 21 7 70
12 109 12 39 0 72 4 74 8 4 12 176 52 223 52 65 0 115 18 115 40 0 11 4 20 8
20 17 0 32 -25 32 -53 0 -16 11 -42 25 -59 14 -16 25 -40 25 -53 0 -13 3 -30
6 -39 8 -20 34 -21 34 -1 0 8 7 15 15 15 8 0 16 6 16 13 5 49 5 73 -1 82 -4 6
-10 31 -12 57 -3 25 -15 66 -27 90 -26 54 -27 78 -3 78 9 0 31 7 47 16 17 9
54 18 83 21 28 3 52 10 52 14 0 5 8 9 18 9 11 0 32 12 48 26 l29 26 -40 -5
c-41 -4 -135 -35 -212 -70 -23 -10 -47 -16 -53 -12 -5 3 -10 28 -10 54 0 26
-5 52 -12 59 -20 20 1 27 95 30 118 3 139 8 135 30 -3 15 5 17 59 14 53 -3 63
-1 72 16 6 12 11 30 11 41 0 19 -6 21 -61 21 -54 0 -60 2 -49 15 7 9 11 17 9
19 -2 1 -76 0 -164 -4 -88 -4 -163 -5 -167 -1 -3 3 -8 17 -10 31 -2 17 -8 24
-21 22 -9 -2 -24 4 -32 12 -8 8 -19 16 -24 18 -5 1 -11 19 -13 38 l-3 35 85
12 c47 6 161 12 254 12 l168 1 -3 -85 c-4 -80 -3 -84 19 -90 12 -3 31 -1 42 5
10 5 30 10 44 10 14 0 26 5 26 10 0 6 15 10 33 10 78 0 177 57 177 101 0 28
-18 23 -66 -16 -23 -19 -47 -35 -53 -35 -6 0 -11 -4 -11 -10 0 -5 -20 -10 -45
-10 -25 0 -45 -4 -45 -10 0 -5 -9 -10 -20 -10 -17 0 -20 7 -20 49 0 28 -4 53
-10 56 -5 3 -10 13 -10 21 0 11 25 14 145 14 126 0 145 -2 145 -16 0 -23 24
-11 28 13 3 20 10 21 147 25 184 4 185 5 185 129 0 105 -17 177 -62 262 -23
43 -40 63 -55 65 -24 4 -43 46 -43 98 0 22 -6 37 -19 43 -10 6 -22 23 -26 38
-3 16 -21 57 -38 92 -22 45 -28 66 -19 69 20 6 14 33 -18 69 -16 18 -30 42
-30 53 0 10 -4 20 -10 22 -5 2 -17 30 -25 62 -9 33 -25 74 -35 92 -11 17 -20
43 -20 57 0 27 53 97 73 97 6 0 21 10 34 22 14 13 23 17 23 9 0 -11 3 -11 15
-1 8 7 15 19 15 28 0 8 11 30 25 48 14 18 25 44 25 59 0 17 7 28 23 34 12 5
38 26 57 46 58 62 130 115 156 115 14 0 46 10 72 23 26 13 67 30 91 37 24 8
45 20 48 27 3 9 25 13 62 13 63 0 77 6 83 35 3 17 10 19 42 17 43 -4 56 8 56
51 0 25 -3 27 -39 27 -34 0 -38 3 -34 20 4 14 0 20 -10 20 -9 0 -18 -4 -21 -9
-3 -4 -43 -12 -88 -16 -46 -3 -90 -12 -98 -20 -8 -7 -35 -15 -60 -19 -70 -10
-141 -36 -147 -55 -10 -28 -106 -121 -126 -121 -10 0 -83 -63 -163 -142 -79
-77 -147 -138 -151 -135 -3 4 -7 62 -9 129 -2 105 -5 123 -18 122 -13 -2 -16
10 -16 55 0 74 -29 292 -40 306 -5 6 -10 41 -11 78 -1 41 -6 68 -14 71 -9 3
-14 61 -17 217 -3 153 -7 214 -16 217 -7 2 -12 21 -12 43 0 21 -4 39 -10 39
-5 0 -10 8 -10 18 0 21 -56 197 -76 235 -8 16 -14 35 -14 42 0 25 48 105 94
156 43 48 59 89 36 89 -21 0 -9 29 17 42 46 23 52 44 21 75 l-28 27 -34 -33
c-33 -32 -33 -32 -39 -9 -5 18 -9 20 -19 10 -7 -7 -13 -17 -13 -21 0 -12 -105
-131 -115 -131 -12 0 -200 219 -200 232 0 6 -18 32 -40 58 -22 26 -40 52 -40
57 0 21 -77 83 -103 83 -15 0 -27 4 -27 9 0 5 -8 11 -17 14 -10 3 -56 19 -103
36 -47 17 -99 31 -117 31 -17 0 -35 5 -38 11 -4 5 6 39 21 75 30 71 25 95 -12
49 -13 -17 -33 -30 -46 -30 -18 0 -24 -7 -26 -28 l-3 -27 -162 2 -162 3 -3 29
c-2 16 1 33 7 39 6 6 11 21 11 34 0 13 3 23 8 23 8 0 32 94 32 128 0 13 5 33
11 44 7 12 11 61 10 109 0 49 4 91 9 94 6 3 10 35 10 70 0 35 5 67 10 70 16
10 12 85 -4 85 -8 0 -18 -5 -21 -10 -4 -6 -10 -8 -15 -5 -18 11 -47 -17 -42
-41 3 -17 0 -24 -12 -24 -11 0 -16 -9 -17 -27 0 -16 -3 -22 -6 -15 -2 6 -11
12 -19 12 -17 0 -19 -26 -3 -36 12 -7 8 -76 -11 -174 -5 -30 -13 -74 -16 -97
-4 -25 -16 -51 -30 -64 -23 -21 -24 -27 -18 -104 6 -76 5 -85 -17 -114 -22
-31 -24 -31 -110 -31 l-88 0 5 33 c2 17 8 81 13 142 6 60 15 111 20 113 7 2
11 47 11 122 0 92 -3 120 -15 130 -8 7 -15 21 -15 31 0 9 -6 24 -14 31 -8 9
-16 48 -19 103 -11 155 -19 206 -33 212 -8 3 -14 14 -14 24 0 22 -38 26 -56 5z
m660 -1211 c-1 -42 -10 -98 -23 -140 -12 -38 -27 -113 -33 -165 -10 -94 -11
-96 -64 -160 -29 -36 -82 -94 -118 -130 -36 -35 -66 -71 -66 -78 0 -21 -69
-101 -204 -239 -93 -95 -122 -120 -133 -112 -7 7 -13 17 -13 24 0 7 -7 18 -15
25 -9 8 -13 21 -9 32 7 22 -20 58 -43 58 -8 0 -42 25 -76 55 -33 30 -70 55
-81 55 -36 0 -66 12 -66 25 0 8 -44 35 -97 60 -216 104 -270 132 -313 164 -25
18 -52 35 -60 38 -38 14 -119 54 -124 62 -4 5 -39 22 -79 37 -39 14 -81 35
-93 45 -11 11 -25 19 -32 19 -6 0 -33 14 -59 30 -51 33 -83 38 -83 15 0 -26
-35 -16 -71 21 l-34 35 25 19 c38 29 75 26 100 -10 12 -16 27 -30 35 -30 14 0
31 72 21 89 -12 19 6 41 35 41 16 0 29 5 29 10 0 6 18 10 40 10 22 0 40 5 40
10 0 6 17 10 38 11 56 0 117 14 115 25 -1 6 50 16 120 23 67 8 125 17 128 22
3 5 56 12 117 16 102 6 112 5 112 -11 0 -10 9 -20 20 -23 11 -3 20 -12 20 -19
0 -23 57 -18 63 6 3 12 14 20 25 20 15 0 22 8 24 28 l3 27 118 3 c100 2 117 0
117 -13 0 -8 7 -15 15 -15 8 0 15 9 15 20 0 19 7 20 130 20 125 0 130 -1 130
-21 0 -27 21 -20 38 13 l12 26 153 -2 152 -1 -1 -70z m256 25 c0 -5 9 -10 20
-10 36 0 94 -41 183 -128 89 -87 204 -222 215 -251 3 -9 17 -31 31 -50 22 -29
26 -45 25 -95 -1 -67 -21 -146 -41 -159 -32 -20 -176 -273 -206 -362 -37 -108
-43 -120 -60 -119 -13 1 -15 -4 -11 -20 3 -14 -9 -52 -31 -102 -21 -43 -45
-96 -54 -116 -9 -20 -24 -39 -34 -42 -15 -4 -16 -12 -11 -58 5 -45 2 -60 -20
-102 -14 -27 -26 -57 -26 -66 0 -25 -25 -80 -50 -113 -29 -37 -70 -114 -70
-133 0 -30 -74 -210 -97 -235 -12 -14 -23 -30 -23 -36 0 -6 -7 -16 -15 -23
-11 -9 -20 -8 -44 9 -16 12 -41 21 -55 21 -21 0 -26 5 -26 25 0 14 -17 48 -37
77 l-38 52 3 161 c2 88 7 164 12 170 4 5 11 29 15 51 5 36 4 42 -14 47 -23 6
-28 36 -8 56 10 10 9 15 -5 25 -10 7 -18 18 -18 25 0 19 -23 12 -52 -16 -31
-30 -36 -29 -42 13 -5 25 3 36 59 87 36 32 78 60 95 63 16 4 30 10 30 15 0 5
22 9 50 9 59 0 102 17 98 39 -3 13 -17 16 -69 15 -82 -2 -153 -35 -225 -106
l-51 -49 -16 25 c-10 14 -17 30 -17 36 0 18 -13 11 -52 -27 -35 -34 -38 -35
-38 -15 0 12 -4 22 -8 22 -14 0 -32 -23 -32 -40 0 -9 -18 -41 -40 -70 -22 -29
-40 -60 -40 -68 0 -8 -11 -36 -25 -64 -22 -44 -26 -67 -31 -201 -6 -141 -5
-156 14 -200 12 -27 27 -47 37 -47 8 0 23 -17 33 -37 9 -21 38 -65 64 -98 27
-33 48 -65 48 -72 0 -13 52 -96 81 -128 10 -11 18 -24 18 -28 -1 -13 218 -238
228 -235 4 2 29 -13 53 -32 48 -38 69 -50 141 -87 39 -19 62 -23 138 -23 79 0
99 4 143 26 52 27 268 227 268 249 0 6 23 56 51 111 51 100 79 167 79 193 0 8
8 33 18 55 44 97 52 139 52 264 0 113 -2 129 -30 201 -17 44 -37 85 -45 91 -8
7 -15 18 -15 25 0 6 -13 36 -30 66 -16 30 -30 62 -30 72 0 18 -9 32 -78 118
-17 23 -30 45 -27 49 3 5 1 11 -5 15 -19 12 -10 52 20 80 17 16 30 35 30 42 0
7 12 18 26 23 20 8 25 16 22 37 -4 49 14 157 30 176 16 18 72 144 72 162 0 7
11 22 25 35 l25 23 0 -25 c0 -14 7 -28 15 -32 8 -3 15 -14 15 -25 0 -11 7 -26
15 -35 8 -8 15 -31 15 -50 0 -20 4 -36 9 -36 5 0 11 -18 15 -40 3 -22 11 -40
16 -40 6 0 10 -18 10 -40 0 -22 3 -40 8 -40 12 0 32 -101 34 -175 1 -67 1 -68
9 -25 4 25 6 -100 3 -277 -3 -200 -1 -323 5 -323 5 0 11 -48 14 -107 2 -60 12
-155 20 -213 22 -142 22 -141 -22 -191 -23 -27 -41 -59 -45 -84 -4 -22 -13
-46 -18 -53 -6 -7 -23 -35 -37 -62 -14 -27 -56 -86 -92 -132 -36 -46 -76 -101
-88 -123 -44 -80 -69 -117 -103 -153 -55 -59 -128 -158 -128 -174 0 -15 27 -8
45 12 11 12 25 18 36 15 11 -4 23 2 32 16 9 11 20 18 27 14 16 -10 40 14 40
41 0 17 8 28 28 36 41 18 62 39 62 62 0 13 24 45 59 80 33 33 59 62 58 65 -2
7 35 66 103 166 23 33 50 76 77 119 14 21 28 34 32 30 4 -5 18 -35 31 -68 18
-46 46 -82 127 -167 75 -79 103 -115 103 -134 0 -14 4 -25 9 -25 4 0 14 -20
21 -45 7 -25 16 -45 21 -45 4 0 11 -17 15 -37 4 -21 10 -40 13 -43 9 -7 31
-95 31 -122 0 -12 6 -29 14 -37 8 -9 16 -32 18 -51 l3 -35 -272 -3 c-234 -2
-273 -4 -273 -17 0 -12 -18 -15 -92 -15 -51 0 -140 -7 -198 -15 -58 -8 -145
-15 -195 -15 l-89 0 37 38 c43 44 45 52 14 52 -27 0 -77 -48 -77 -73 0 -10 -6
-19 -12 -22 -7 -2 -154 -5 -325 -7 -233 -3 -313 -1 -313 7 0 24 -33 78 -51 82
-11 3 -19 14 -19 24 0 23 0 23 -36 4 -16 -8 -42 -15 -57 -15 -15 0 -30 -6 -33
-14 -3 -8 -14 -16 -25 -19 -14 -4 -19 -14 -19 -36 0 -26 4 -31 24 -31 23 0 44
-16 34 -25 -2 -2 -87 -14 -188 -26 -102 -12 -188 -26 -191 -31 -3 -5 -136 -12
-295 -15 l-289 -6 -68 77 c-38 42 -73 76 -78 76 -5 0 -9 -22 -9 -48 0 -36 5
-54 20 -67 38 -35 26 -45 -54 -45 -51 0 -77 4 -85 14 -16 19 -62 29 -74 17 -7
-7 -99 -11 -260 -11 -232 0 -254 -2 -316 -22 -36 -13 -72 -28 -79 -35 -7 -7
-19 -13 -26 -13 -8 0 -19 -7 -26 -15 -16 -19 -2 -20 68 -4 27 7 62 8 78 4 26
-7 22 -9 -46 -27 -41 -11 -97 -22 -125 -25 -27 -2 -63 -10 -80 -17 -16 -8 -61
-21 -100 -30 -38 -9 -71 -21 -73 -26 -2 -6 -19 -10 -38 -10 -19 0 -62 -11 -96
-25 -34 -14 -64 -23 -67 -20 -6 7 41 147 75 222 13 29 35 78 49 108 14 31 25
58 25 61 0 3 20 36 44 72 40 63 115 139 234 239 74 63 72 39 -4 -38 -60 -61
-65 -68 -53 -87 12 -18 10 -24 -9 -45 -23 -24 -29 -47 -13 -47 6 0 39 25 75
55 35 30 68 55 73 55 5 0 28 20 52 44 30 31 42 50 37 61 -4 13 14 38 63 91 39
40 79 91 90 113 l20 39 168 -169 c92 -93 173 -169 180 -169 32 0 10 37 -105
179 -24 29 -41 56 -37 59 3 3 25 -13 48 -36 24 -23 48 -42 55 -42 28 0 8 43
-44 92 -55 52 -80 85 -71 95 3 2 14 -1 26 -8 11 -7 23 -10 27 -6 11 10 -87
107 -107 107 -10 0 -31 17 -48 37 -25 30 -31 47 -31 86 0 42 -5 53 -42 93 -50
54 -56 85 -57 274 -1 69 -6 141 -11 160 -11 37 -25 262 -39 654 -7 173 -13
241 -22 246 -8 6 -14 45 -17 116 -3 77 -2 105 6 100 18 -11 100 -121 114 -152
7 -16 34 -63 60 -105 26 -42 44 -79 41 -83 -3 -3 11 -25 31 -50 20 -24 36 -47
36 -51 0 -4 9 -18 20 -32 11 -14 20 -34 20 -44 0 -10 13 -33 29 -51 33 -38 81
-124 81 -145 0 -7 10 -17 23 -22 18 -7 22 -16 22 -51 0 -26 5 -45 13 -47 7 -3
12 4 12 16 0 25 13 27 31 5 10 -12 10 -22 1 -48 -7 -18 -12 -42 -12 -54 0 -12
-4 -22 -10 -22 -6 0 -10 -72 -10 -195 0 -177 2 -200 21 -243 12 -26 30 -67 41
-92 24 -55 129 -164 182 -191 22 -10 56 -19 77 -19 20 0 42 -7 49 -15 7 -8 25
-15 41 -15 15 0 31 -5 34 -10 9 -15 73 -2 115 24 61 36 110 87 110 112 0 14 7
27 15 30 17 7 20 55 4 71 -18 18 -6 47 21 53 21 5 26 13 28 45 2 22 7 42 10
45 11 7 32 96 32 130 0 17 5 30 10 30 6 0 10 8 10 18 0 9 14 35 31 55 27 33
33 50 41 120 11 105 0 341 -18 386 -16 39 -19 105 -4 96 6 -3 10 -15 10 -26 0
-10 5 -19 10 -19 6 0 10 20 10 45 l0 45 -50 0 c-38 0 -50 4 -50 15 0 8 6 15
14 15 26 0 29 21 5 46 l-23 24 32 33 c38 39 42 61 10 51 -13 -3 -31 -13 -40
-22 -16 -14 -18 -13 -18 5 0 10 7 28 15 39 19 26 20 84 0 84 -15 0 -35 -30
-35 -53 0 -8 -7 -31 -15 -52 l-16 -37 -39 44 c-28 31 -41 40 -50 32 -8 -8 -8
-18 1 -37 7 -15 15 -27 19 -27 4 0 11 -25 15 -56 5 -45 4 -60 -9 -72 -15 -15
-21 -10 -79 52 -58 61 -67 67 -98 64 -29 -2 -34 -7 -34 -28 0 -19 9 -29 45
-46 25 -12 60 -40 79 -64 l33 -42 -25 -26 c-15 -17 -27 -45 -31 -74 -6 -42
-16 -57 -74 -117 -81 -82 -122 -134 -122 -152 0 -16 -30 -95 -47 -124 -11 -19
-12 -19 -32 -1 -20 18 -21 30 -21 174 0 139 2 158 19 176 24 26 42 176 20 176
-16 0 -49 -30 -49 -45 0 -7 -6 -18 -14 -24 -12 -10 -15 -7 -18 21 -2 25 -8 33
-23 33 -16 0 -21 -8 -23 -37 -3 -39 -10 -46 -29 -27 -6 6 -16 8 -22 5 -16 -10
-13 -56 4 -62 34 -13 5 -69 -31 -62 -20 4 -58 62 -110 166 -19 40 -49 89 -66
108 -22 25 -32 48 -35 79 -3 39 0 46 22 61 16 11 24 23 20 32 -3 8 4 26 16 38
l22 24 -28 26 c-23 21 -32 24 -46 15 -10 -6 -25 -8 -33 -5 -8 3 -17 1 -20 -4
-12 -19 -41 0 -85 54 -24 30 -49 54 -56 54 -18 0 -42 31 -49 67 -4 17 -29 57
-57 88 -48 56 -70 101 -53 114 5 3 10 35 11 71 2 94 19 138 77 198 43 45 56
52 88 52 33 0 37 3 35 22 -3 32 24 34 70 5 22 -14 47 -26 58 -28 26 -6 31 -29
6 -29 -30 0 -26 -19 7 -26 15 -4 34 -12 42 -19 22 -18 120 -65 120 -58 0 3 9
-2 19 -11 11 -10 48 -31 82 -47 35 -17 84 -45 110 -64 71 -51 128 -77 154 -71
12 3 35 -1 51 -9 16 -7 52 -20 79 -27 30 -7 64 -26 85 -45 19 -18 41 -33 48
-33 8 0 26 -8 40 -18 15 -10 41 -24 57 -32 67 -33 293 -225 280 -238 -2 -3 29
-40 70 -84 42 -43 80 -90 85 -103 5 -14 14 -25 18 -25 13 0 92 87 92 101 0 6
39 53 88 103 124 130 202 221 202 235 0 7 12 28 27 48 15 19 28 42 29 50 1 7
30 43 63 79 34 36 59 69 57 73 -3 4 21 34 54 66 52 52 59 63 65 109 3 28 10
71 15 96 5 25 15 106 21 180 7 74 16 141 22 148 12 15 157 17 157 2z m310
-1416 c0 -7 -6 -14 -12 -17 -9 -2 1 -20 25 -51 30 -36 40 -59 46 -101 8 -55
40 -105 67 -105 19 0 26 -87 22 -259 -2 -95 -7 -154 -14 -159 -6 -4 -14 -22
-17 -40 -9 -43 -91 -211 -125 -254 -8 -9 -15 -24 -16 -33 -3 -22 -217 -235
-236 -235 -8 0 -24 -7 -34 -15 -38 -29 -90 -19 -148 28 -29 24 -58 53 -63 64
-6 11 -17 28 -24 37 -12 15 -3 16 103 16 71 0 116 4 116 10 0 6 15 10 33 10
54 0 132 33 135 57 2 11 12 29 23 39 10 9 19 22 19 27 0 6 11 38 25 73 23 57
25 77 27 245 3 169 1 190 -20 259 -13 41 -27 102 -31 135 -5 33 -18 80 -30
104 l-23 44 39 76 c21 41 38 78 38 81 0 3 4 11 9 18 6 11 15 7 37 -14 16 -15
29 -33 29 -40z m-205 -424 c13 0 15 -24 15 -175 0 -96 -4 -175 -9 -175 -5 0
-11 -18 -15 -39 -4 -30 -16 -48 -48 -75 l-42 -36 -101 0 c-65 0 -105 4 -113
12 -20 20 -14 48 13 58 20 8 25 16 25 43 0 25 9 42 35 67 24 23 35 43 35 62 0
17 22 64 54 116 29 48 57 98 61 112 4 14 16 40 28 59 l20 33 13 -31 c7 -17 20
-31 29 -31z m-1645 -107 c18 -5 20 -14 20 -83 0 -57 -4 -79 -14 -83 -14 -5
-46 -61 -46 -79 0 -6 -10 -23 -21 -40 l-21 -29 -22 20 c-12 12 -28 21 -34 21
-7 0 -12 8 -12 18 0 9 -7 26 -15 36 -20 27 -20 130 0 150 8 8 15 21 15 28 0 8
7 23 15 34 8 10 15 28 15 39 0 25 58 85 76 78 9 -3 15 2 16 13 1 11 4 -12 5
-50 3 -57 7 -69 23 -73z m2466 60 c-10 -10 -19 5 -10 18 6 11 8 11 12 0 2 -7
1 -15 -2 -18z m274 -1007 c0 -3 -4 -8 -10 -11 -5 -3 -10 -1 -10 4 0 6 5 11 10
11 6 0 10 -2 10 -4z m-1150 -676 c0 -22 42 -70 61 -70 6 0 9 8 6 20 -3 11 -1
23 4 26 5 3 9 0 9 -5 0 -6 7 -11 15 -11 8 0 15 -9 15 -20 0 -13 -7 -20 -20
-20 -15 0 -20 -7 -20 -25 0 -18 -5 -25 -20 -25 -10 0 -27 -8 -37 -18 -10 -11
-45 -24 -77 -31 -33 -6 -62 -15 -65 -20 -3 -4 -81 -11 -173 -14 l-168 -6 0 43
c0 23 3 46 7 50 4 4 9 32 10 63 1 31 5 58 8 61 3 3 94 8 203 12 108 4 207 7
220 8 16 2 22 -3 22 -18z m-518 -12 c-7 -7 -12 -8 -12 -2 0 14 12 26 19 19 2
-3 -1 -11 -7 -17z m-85 -83 c2 -38 8 -80 14 -91 22 -42 9 -59 -49 -62 -28 -2
-52 -7 -52 -13 0 -5 -36 -9 -80 -9 -47 0 -80 -4 -80 -10 0 -6 -33 -10 -80 -10
-47 0 -80 -4 -80 -10 0 -5 -18 -10 -40 -10 l-40 0 0 40 c0 33 -3 40 -20 40
-14 0 -20 7 -20 21 0 18 -4 21 -29 16 -29 -6 -30 -5 -33 35 -4 59 -28 63 -28
4 0 -24 5 -48 10 -51 16 -10 12 -35 -5 -35 -9 0 -20 12 -25 28 -12 30 -28 68
-41 94 -5 10 -9 29 -9 43 0 25 1 25 83 26 45 0 163 6 262 14 99 7 216 12 260
11 l79 -1 3 -70z m-724 -8 c-4 -24 0 -37 16 -51 12 -11 21 -24 21 -31 0 -6 12
-22 26 -36 22 -21 25 -31 22 -76 -2 -31 1 -54 7 -54 13 -2 -66 -17 -127 -25
-27 -4 -48 -10 -48 -15 0 -5 -18 -9 -40 -9 -22 0 -40 -4 -40 -10 0 -5 -18 -10
-40 -10 l-40 0 0 73 c0 40 5 78 11 84 8 8 7 16 -2 30 -17 28 -6 53 20 46 12
-3 21 -1 21 6 0 6 -7 11 -15 11 -11 0 -15 8 -13 28 3 24 -1 27 -29 30 -25 2
-33 8 -33 23 0 18 8 19 144 19 l145 0 -6 -33z m-393 9 c0 -7 7 -19 16 -27 10
-8 13 -20 9 -33 -12 -39 -4 -180 11 -197 8 -8 14 -30 14 -47 0 -31 -1 -32 -42
-32 -24 0 -76 -9 -117 -20 -41 -11 -89 -20 -106 -20 l-32 0 -2 70 c-2 52 3 78
16 100 13 23 15 32 5 42 -19 19 -15 40 7 33 26 -8 39 15 17 30 -12 9 -15 20
-10 39 5 22 2 28 -22 39 -16 7 -30 18 -31 25 -2 9 30 12 132 12 108 0 135 -3
135 -14z m1861 -246 c3 -25 12 -57 19 -73 18 -37 7 -46 -68 -53 -34 -4 -62
-11 -62 -15 0 -5 -36 -9 -80 -9 -47 0 -80 -4 -80 -10 0 -5 -18 -10 -40 -10
-34 0 -42 -4 -50 -25 -8 -21 -16 -25 -50 -25 -27 0 -43 -5 -46 -15 -7 -18 -34
-20 -34 -2 0 7 11 24 25 39 14 15 25 33 25 39 0 7 7 20 15 29 12 14 13 21 2
43 -6 15 -20 27 -29 27 -27 0 -29 16 -7 44 17 21 29 26 65 26 24 0 44 4 44 9
0 12 151 29 255 27 l90 -1 6 -45z m-561 -49 c0 -16 -7 -34 -15 -41 -8 -7 -15
-19 -15 -26 0 -8 -6 -23 -12 -34 -10 -15 -10 -22 0 -32 18 -18 15 -40 -11 -71
-18 -23 -32 -29 -79 -34 -32 -3 -58 -10 -58 -14 0 -5 -18 -9 -40 -9 -22 0 -40
-4 -40 -10 0 -5 -18 -10 -40 -10 -22 0 -40 -4 -40 -10 0 -5 -18 -10 -40 -10
-22 0 -40 -4 -40 -10 0 -5 -18 -10 -40 -10 -22 0 -40 -5 -40 -11 0 -6 -14 -9
-32 -7 -33 3 -33 3 -36 63 -2 41 -9 66 -22 80 -11 12 -21 44 -25 79 -7 54 -6
59 10 52 10 -4 22 -1 29 8 14 17 141 33 334 42 78 4 142 11 142 16 0 4 18 8
39 8 22 0 43 5 46 10 12 19 25 10 25 -19z m-738 -181 c3 -52 9 -118 13 -146 6
-48 4 -52 -17 -58 -13 -3 -31 -6 -40 -6 -9 0 -36 -13 -60 -29 -50 -33 -99 -51
-140 -51 -16 0 -31 -6 -34 -15 -5 -11 -22 -15 -70 -15 -61 0 -64 1 -64 24 0
14 -10 30 -25 40 -24 16 -27 16 -50 -1 -13 -10 -25 -24 -25 -31 0 -8 -9 -16
-20 -19 -14 -4 -20 -14 -20 -33 0 -34 -14 -45 -62 -54 -21 -4 -38 -11 -38 -16
0 -6 -18 -10 -40 -10 -22 0 -40 -4 -40 -9 0 -4 -30 -11 -67 -15 -66 -7 -69 -6
-90 21 -13 15 -23 33 -23 40 0 7 -14 28 -31 48 -27 30 -30 41 -27 82 3 43 1
48 -19 51 -12 2 -27 10 -33 18 -7 8 -21 14 -31 14 -11 0 -23 10 -28 23 -5 12
-18 31 -30 41 -11 11 -21 27 -21 38 0 15 5 17 25 12 19 -5 25 -2 25 10 0 9 7
16 15 16 8 0 15 5 15 10 0 6 9 10 20 10 11 0 20 -4 20 -10 0 -14 43 -12 64 3
13 10 41 12 95 9 62 -3 79 -1 90 12 11 13 35 16 132 16 73 0 140 6 176 15 31
8 72 15 90 15 18 0 33 4 33 9 0 5 33 11 73 15 39 3 95 9 122 15 28 5 68 8 90
7 l40 -1 7 -95z m-872 10 c0 -5 -4 -10 -10 -10 -5 0 -10 5 -10 10 0 6 5 10 10
10 6 0 10 -4 10 -10z m1554 -234 c5 -29 16 -52 36 -71 23 -22 30 -38 30 -66 0
-20 7 -42 15 -49 8 -7 15 -26 15 -42 0 -31 16 -68 34 -80 7 -5 4 -8 -6 -8 -10
0 -18 -4 -18 -10 0 -5 -18 -10 -39 -10 -22 0 -41 -5 -43 -10 -2 -6 -36 -14
-76 -19 -41 -4 -77 -12 -80 -18 -4 -6 -23 -14 -42 -18 -19 -4 -38 -12 -41 -17
-10 -16 -149 -28 -170 -15 -15 9 -25 8 -48 -6 -36 -21 -71 -22 -71 -2 0 8 7
15 15 15 8 0 15 6 15 14 0 8 6 16 13 19 9 3 9 8 -2 21 -11 13 -11 20 -3 28 17
17 15 38 -3 38 -11 0 -15 11 -15 43 0 23 -3 72 -6 109 -6 60 -5 68 12 75 10 3
22 11 25 16 4 5 51 13 105 18 123 10 156 16 191 34 15 8 33 15 40 15 7 0 17 9
23 20 8 15 21 20 49 20 38 0 39 -1 45 -44z m-596 -149 c7 -18 12 -53 12 -78 0
-24 7 -53 15 -63 9 -12 15 -42 15 -77 0 -39 5 -63 16 -73 20 -21 10 -36 -25
-36 -16 0 -39 -8 -52 -18 -13 -10 -41 -26 -61 -37 -26 -13 -38 -26 -38 -40 0
-12 -5 -26 -12 -33 -15 -15 -54 -16 -63 -2 -9 15 -34 12 -52 -6 -9 -8 -27 -14
-42 -12 -20 2 -27 9 -29 31 -2 15 -8 27 -13 27 -5 0 -9 13 -9 30 0 16 -13 52
-29 79 -34 56 -51 111 -51 159 0 25 -5 35 -20 39 -20 5 -28 37 -11 48 13 7 97
26 149 32 23 3 42 9 42 14 0 5 10 9 23 10 12 0 42 8 67 19 25 10 70 18 100 19
55 1 56 0 68 -32z m-578 -127 c0 -16 5 -30 10 -30 6 0 10 -8 10 -17 0 -39 37
-120 72 -158 27 -28 38 -49 38 -71 0 -20 9 -39 25 -54 39 -36 30 -63 -25 -74
-25 -5 -47 -13 -50 -16 -8 -11 -71 -23 -128 -23 -37 0 -58 5 -70 17 -11 11
-13 19 -6 24 16 11 10 63 -9 74 -10 5 -17 21 -17 38 0 18 -7 33 -17 39 -10 5
-27 31 -37 58 -11 26 -37 68 -58 92 -21 24 -38 49 -38 56 0 27 28 37 80 30 44
-6 55 -4 73 13 14 14 39 22 72 25 28 2 56 4 63 5 7 1 12 -10 12 -28z"/>
<path d="M5860 6644 c-40 -7 -70 -26 -70 -43 0 -23 74 -81 103 -81 14 0 30 -7
37 -15 7 -9 21 -13 31 -10 15 5 19 1 20 -17 0 -13 3 -17 6 -10 2 6 11 12 19
12 8 0 14 10 14 26 0 14 4 23 9 19 18 -10 23 16 7 34 -20 22 -20 31 -1 31 17
0 21 35 5 45 -6 4 -17 2 -25 -5 -9 -7 -15 -8 -20 -1 -3 6 -16 10 -28 10 -12
-1 -35 1 -52 4 -16 3 -41 3 -55 1z m180 -29 c0 -8 -7 -15 -15 -15 -9 0 -12 6
-9 15 4 8 10 15 15 15 5 0 9 -7 9 -15z"/>
<path d="M5860 6387 c0 -6 181 -97 193 -97 19 0 2 38 -30 65 -29 24 -47 30
-99 33 -35 3 -64 2 -64 -1z"/>
<path d="M5607 6349 c-22 -11 -37 -23 -34 -25 3 -3 24 4 47 16 23 12 51 19 61
17 11 -3 19 -1 19 4 0 16 -54 9 -93 -12z"/>
<path d="M4203 6134 c-8 -21 36 -66 62 -62 24 4 33 42 15 64 -17 19 -69 18
-77 -2z"/>
<path d="M5842 6113 c9 -22 138 -134 147 -128 22 13 11 64 -20 100 -28 31 -36
35 -81 35 -27 0 -48 -3 -46 -7z"/>
<path d="M4590 4611 c0 -32 8 -47 45 -88 39 -42 44 -45 45 -25 0 41 -59 152
-82 152 -4 0 -8 -18 -8 -39z"/>
<path d="M4498 8404 c-16 -16 -170 -40 -188 -29 -4 3 -11 -7 -15 -22 -5 -21
-1 -31 24 -52 17 -15 31 -32 31 -39 0 -7 12 -12 28 -12 15 0 37 -3 49 -6 15
-4 22 -1 25 12 3 15 14 17 88 15 47 -1 89 -6 94 -12 6 -5 18 -1 31 11 19 18
28 19 95 11 82 -11 94 -8 81 17 -5 9 -12 24 -14 33 -3 8 -20 23 -39 32 -18 9
-27 17 -20 17 14 0 17 40 2 40 -5 0 -13 -7 -18 -16 -8 -14 -23 -16 -96 -12
-47 2 -92 10 -98 16 -17 17 -41 15 -60 -4z"/>
<path d="M8560 6660 c0 -5 -11 -10 -25 -10 -14 0 -45 -9 -68 -20 -23 -12 -61
-24 -84 -27 -24 -3 -43 -10 -43 -14 0 -5 -17 -9 -37 -9 -46 0 -143 -22 -143
-32 0 -5 -6 -8 -13 -8 -7 0 -35 -11 -63 -24 -27 -13 -69 -29 -94 -36 -25 -7
-75 -27 -113 -45 -61 -29 -73 -32 -132 -27 -45 3 -65 1 -65 -7 0 -6 -7 -11
-15 -11 -49 0 -175 -65 -175 -91 0 -5 11 -9 25 -9 14 0 25 -4 25 -8 0 -4 -20
-28 -45 -52 -25 -24 -45 -41 -45 -36 0 4 -16 -2 -36 -13 -45 -27 -58 -18 -19
13 39 31 18 40 -30 12 -37 -20 -40 -25 -37 -61 2 -22 10 -45 18 -51 8 -6 12
-19 8 -28 -10 -25 43 -20 98 9 68 36 77 34 70 -20 -6 -55 10 -60 53 -15 22 22
38 30 65 30 20 0 53 9 75 20 23 12 59 20 88 20 33 0 58 7 78 20 35 25 110 46
204 55 39 4 72 11 75 14 3 3 27 12 55 19 73 19 118 50 111 75 -7 28 10 47 42
47 27 0 109 47 154 88 24 22 32 24 87 17 53 -6 83 -19 78 -35 -3 -8 65 -143
80 -161 22 -26 193 -386 193 -407 0 -4 9 -27 20 -50 11 -23 23 -57 27 -75 3
-17 9 -34 12 -37 31 -26 56 -342 31 -389 -9 -17 -9 -25 -1 -30 15 -10 0 -87
-25 -127 -27 -44 -71 -94 -82 -94 -20 0 -31 143 -12 155 6 3 10 -1 10 -9 0
-20 17 -29 26 -15 4 8 3 9 -4 5 -7 -4 -12 -1 -12 9 0 10 5 14 13 9 10 -6 10
-4 0 7 -15 16 -17 105 -3 114 15 9 12 45 -4 45 -7 0 -16 9 -19 20 -6 23 -35
26 -70 8 -12 -6 -29 -14 -37 -18 -8 -4 -20 -25 -25 -48 -6 -22 -13 -44 -18
-48 -10 -11 -9 -52 3 -59 6 -3 10 -26 10 -51 0 -24 -4 -44 -10 -44 -5 0 -10
-18 -10 -40 0 -23 -5 -40 -11 -40 -8 0 -10 -34 -7 -115 3 -87 1 -115 -8 -115
-7 0 -26 -11 -42 -25 -17 -14 -33 -25 -36 -25 -9 0 -65 -39 -98 -68 -14 -13
-30 -24 -35 -24 -4 0 -27 -8 -50 -19 -38 -17 -69 -19 -374 -19 -183 0 -337 -4
-341 -8 -19 -19 5 -40 55 -46 64 -9 69 -12 55 -36 -20 -32 2 -44 81 -41 66 2
69 1 64 -18 -5 -20 -1 -21 55 -21 34 0 64 5 67 10 3 6 23 10 44 10 28 0 44 -7
66 -30 24 -25 36 -30 78 -30 56 0 87 13 87 38 0 15 10 17 79 14 61 -3 95 1
150 18 39 13 71 26 71 29 0 4 18 6 39 6 45 0 81 27 81 59 0 13 42 64 109 133
117 121 213 229 211 238 0 3 18 31 41 62 39 53 61 112 89 238 12 54 13 425 1
425 -5 0 -12 15 -16 33 -10 51 -38 127 -47 127 -4 0 -8 27 -8 59 0 33 -5 63
-10 66 -6 4 -8 21 -4 41 5 26 -1 49 -25 100 -32 68 -34 111 -4 100 9 -4 13 -1
10 6 -2 7 -14 13 -26 13 -20 1 -100 78 -101 98 0 5 -12 24 -26 43 -18 23 -35
34 -53 34 -32 1 -65 42 -58 72 7 24 -57 113 -118 166 -35 32 -37 32 -145 32
-67 0 -110 -4 -110 -10z"/>
<path d="M1627 6513 c-5 -10 0 -107 9 -155 3 -23 12 -38 20 -38 9 0 14 -11 14
-30 0 -16 4 -30 9 -30 5 0 27 20 50 45 42 46 52 79 27 88 -8 3 -18 22 -22 41
-3 20 -11 36 -16 36 -6 0 -23 11 -40 25 -31 26 -44 30 -51 18z"/>
<path d="M2955 6339 c-4 -5 -19 -7 -35 -4 l-27 6 4 -53 c2 -29 8 -62 13 -73 4
-11 11 -28 14 -37 7 -24 16 -23 54 10 29 24 32 33 36 95 l4 67 -29 0 c-15 0
-31 -5 -34 -11z"/>
<path d="M7225 5960 c-33 -21 -67 -39 -76 -39 -21 -1 -146 -117 -137 -126 4
-4 23 4 42 19 19 14 48 26 64 26 17 0 37 9 52 25 12 13 25 23 29 22 3 -1 17 6
31 16 14 10 41 28 60 40 19 13 35 29 35 37 0 27 -39 19 -100 -20z"/>
<path d="M7400 5958 c-19 -11 -72 -54 -117 -96 -46 -43 -115 -106 -154 -142
-127 -116 -181 -200 -128 -200 14 0 94 73 240 219 120 120 219 223 219 230 0
16 -20 13 -60 -11z"/>
<path d="M7902 5768 c3 -9 33 -14 91 -16 73 -2 87 0 87 13 0 12 -16 15 -91 15
-68 0 -90 -3 -87 -12z"/>
<path d="M8808 5535 c-1 -2 -1 -28 0 -58 3 -36 9 -57 18 -61 11 -4 14 7 14 53
0 41 -4 60 -14 64 -8 3 -16 4 -18 2z"/>
<path d="M2064 5378 c-10 -17 33 -48 67 -48 27 0 29 2 19 20 -10 19 -47 40
-70 40 -5 0 -12 -5 -16 -12z"/>
<path d="M2297 5153 c-4 -3 -7 -15 -7 -25 0 -24 -17 -23 -30 2 -12 22 -35 26
-45 9 -4 -5 1 -19 10 -29 10 -11 15 -28 13 -38 -3 -11 0 -28 6 -38 6 -10 9
-42 7 -70 -2 -36 2 -54 13 -63 9 -8 16 -24 16 -37 0 -13 5 -24 10 -24 6 0 10
-9 10 -21 0 -18 4 -20 28 -14 57 14 68 36 67 133 -1 48 -5 94 -9 101 -5 7 -5
16 0 20 8 5 10 23 5 59 0 6 -13 12 -28 12 -14 0 -34 7 -43 15 -9 8 -20 12 -23
8z"/>
<path d="M7325 4600 c-112 -5 -120 -6 -123 -26 -3 -19 3 -22 59 -28 87 -9 239
-8 239 2 0 5 -12 19 -27 33 -27 23 -32 24 -148 19z"/>
<path d="M2540 4367 c0 -32 -1 -33 -67 -45 -51 -10 -88 -26 -153 -67 -48 -30
-94 -63 -104 -74 -10 -11 -30 -22 -44 -26 -15 -3 -43 -21 -62 -39 -19 -18 -55
-41 -80 -51 -107 -45 -138 -75 -79 -75 60 0 152 41 248 111 51 38 97 69 102
69 4 0 44 17 87 39 83 40 152 59 152 42 0 -5 -4 -13 -10 -16 -5 -3 -10 -21
-10 -39 0 -17 -5 -37 -11 -43 -7 -7 -8 -19 -4 -30 5 -10 9 -43 9 -73 l1 -55
35 3 c50 4 86 49 92 113 3 27 13 58 23 69 14 16 15 22 5 35 -7 8 -9 22 -6 31
5 13 9 14 22 4 11 -10 18 -10 26 -2 9 9 7 15 -7 26 -16 12 -17 16 -6 30 19 22
6 46 -24 46 -16 0 -25 6 -25 15 0 8 -6 15 -14 15 -7 0 -19 -7 -26 -15 -18 -22
-30 -18 -30 10 0 18 -5 25 -20 25 -16 0 -20 -7 -20 -33z"/>
<path d="M2390 4100 c-8 -5 -31 -10 -51 -10 -20 0 -42 -6 -48 -14 -6 -7 -64
-35 -127 -62 -64 -27 -119 -55 -122 -62 -24 -63 167 -16 320 78 26 17 54 30
62 30 13 0 46 31 46 43 0 11 -63 8 -80 -3z"/>
<path d="M7535 4033 c-11 -3 -31 -16 -44 -29 l-24 -25 27 -27 c25 -28 28 -28
93 -20 36 4 68 9 70 11 2 3 -10 18 -26 35 -16 18 -31 39 -35 47 -5 15 -23 17
-61 8z"/>
<path d="M6805 3711 c-65 -5 -80 -9 -83 -23 -3 -16 5 -18 75 -17 84 1 154 17
161 37 4 13 -7 13 -153 3z"/>
<path d="M7058 3672 c-25 -5 -22 -16 12 -50 17 -17 30 -37 30 -45 0 -13 6 -13
40 -3 22 6 48 19 57 29 16 16 16 19 -9 43 -25 25 -79 36 -130 26z"/>
<path d="M6577 3102 c-29 -30 -33 -42 -15 -42 15 0 78 49 78 61 0 19 -37 8
-63 -19z"/>
<path d="M3140 2662 c0 -20 271 -292 290 -292 5 0 33 -16 60 -36 28 -20 54
-34 57 -30 9 8 -348 367 -358 360 -4 -2 -10 0 -14 6 -10 17 -35 11 -35 -8z"/>
<path d="M3390 2662 c0 -8 9 -25 20 -39 11 -14 20 -38 20 -53 0 -36 115 -164
125 -139 4 10 -6 34 -24 62 -17 25 -31 49 -31 54 0 16 -109 129 -110 115z"/>
</g>
</svg>
